<svg width="785" height="288" viewBox="0 0 785 288" fill="none" xmlns="http://www.w3.org/2000/svg">
<path d="M439.449 287.907C413.756 287.907 394.008 284.708 380.203 278.31C366.398 271.912 356.683 261.803 351.059 247.984C345.563 234.036 342.814 214.714 342.814 190.018V175.238C342.814 150.542 345.563 131.284 351.059 117.464C356.683 103.517 366.398 93.3437 380.203 86.9457C394.008 80.5476 413.756 77.3486 439.449 77.3486C465.141 77.3486 485.018 80.5476 499.078 86.9457C513.139 93.3437 523.045 103.517 528.797 117.464C534.677 131.412 537.617 150.67 537.617 175.238V190.018C537.617 214.586 534.677 233.844 528.797 247.792C523.045 261.739 513.139 271.912 499.078 278.31C485.018 284.708 465.141 287.907 439.449 287.907ZM377.902 186.947C377.902 207.036 379.308 221.88 382.12 231.477C384.932 241.074 390.62 247.856 399.185 251.823C407.749 255.789 421.298 257.773 439.832 257.773C458.367 257.773 471.98 255.789 480.672 251.823C489.492 247.856 495.371 241.074 498.311 231.477C501.251 221.752 502.721 206.908 502.721 186.947V178.309C502.721 158.348 501.251 143.568 498.311 133.971C495.371 124.246 489.492 117.4 480.672 113.433C471.98 109.467 458.367 107.483 439.832 107.483C421.554 107.483 408.132 109.467 399.568 113.433C391.004 117.4 385.252 124.246 382.312 133.971C379.372 143.568 377.902 158.348 377.902 178.309V186.947Z" fill="#48B0FF"/>
<path d="M225.072 287.907C199.379 287.907 179.631 284.708 165.826 278.31C152.021 271.912 142.306 261.803 136.682 247.984C131.186 234.036 128.438 214.714 128.438 190.018V175.238C128.438 150.542 131.186 131.284 136.682 117.464C142.306 103.517 152.021 93.3437 165.826 86.9457C179.631 80.5476 199.379 77.3486 225.072 77.3486C250.764 77.3486 270.641 80.5476 284.701 86.9457C298.762 93.3437 308.668 103.517 314.42 117.464C320.3 131.412 323.24 150.67 323.24 175.238V190.018C323.24 214.586 320.3 233.844 314.42 247.792C308.668 261.739 298.762 271.912 284.701 278.31C270.641 284.708 250.764 287.907 225.072 287.907ZM163.525 186.947C163.525 207.036 164.931 221.88 167.743 231.477C170.555 241.074 176.243 247.856 184.808 251.823C193.372 255.789 206.921 257.773 225.455 257.773C243.99 257.773 257.603 255.789 266.295 251.823C275.115 247.856 280.995 241.074 283.934 231.477C286.874 221.752 288.344 206.908 288.344 186.947V178.309C288.344 158.348 286.874 143.568 283.934 133.971C280.995 124.246 275.115 117.4 266.295 113.433C257.603 109.467 243.99 107.483 225.455 107.483C207.177 107.483 193.755 109.467 185.191 113.433C176.627 117.4 170.875 124.246 167.935 133.971C164.995 143.568 163.525 158.348 163.525 178.309V186.947Z" fill="#48B0FF"/>
<path d="M558.148 0L592.271 0V142.401C592.271 151.112 602.678 155.597 608.996 149.609L681.797 80.618L727.997 80.618L637.179 164.625C633.137 168.364 632.911 174.683 636.674 178.702L736.24 285.042L690.423 285.042L609.468 197.176C603.349 190.535 592.271 194.869 592.271 203.905V285.042H558.148V0Z" fill="#48B0FF"/>
<path d="M37.4079 119.222L37.4079 285.996H71.5547L71.5547 119.222C71.5547 113.799 75.9953 109.403 81.4731 109.403H128.913V80.1565L81.4731 80.1565C75.9953 80.1565 71.5547 75.7603 71.5547 70.3374V36.2861L37.7916 36.2861L37.7916 70.3374C37.7916 75.7603 33.351 80.1565 27.8732 80.1565H0L0 109.403H27.4895C32.9673 109.403 37.4079 113.8 37.4079 119.222Z" fill="#48B0FF"/>
<rect x="754.305" y="257.824" width="30.1064" height="30.1064" rx="9.85302" fill="#48B0FF"/>
</svg>
